<?xml version="1.0" encoding="utf-8"?>
<!-- Generator: Adobe Illustrator 19.2.1, SVG Export Plug-In . SVG Version: 6.00 Build 0)  -->
<svg version="1.1" id="layer" xmlns="http://www.w3.org/2000/svg" xmlns:xlink="http://www.w3.org/1999/xlink" x="0px" y="0px"
	 viewBox="0 0 652 652" style="enable-background:new 0 0 652 652;" xml:space="preserve">
<style type="text/css">
	.st0{fill:#68A653;}
</style>
<g>
	<g>
		<g>
			<g>
				<g>
					<path class="st0" d="M228.3,429.7h-3c-0.4,0-1.1-0.4-1.5-0.7s-0.7-0.7-0.7-1.5v-25.8c0-0.4,0.4-1.1,0.7-1.5s0.7-0.7,1.5-0.7
						c0.4,0,1.1,0.4,1.5,0.7s0.7,0.7,0.7,1.5v24h0.7c0.4,0,1.1,0.4,1.5,0.7c0.4,0.4,0.7,0.7,0.7,1.5s-0.4,1.1-0.7,1.5
						C229.4,429.7,228.7,429.7,228.3,429.7z"/>
				</g>
			</g>
			<g>
				<g>
					<path class="st0" d="M243.5,429.7c-3,0-5.5-1.1-7.4-3c-2.2-2.2-3-4.4-3-7.4s1.1-5.5,3-7.4c2.2-2.2,4.4-3,7.4-3s5.5,1.1,7.4,3
						c1.8,1.8,3,4.4,3,7.4c0,0.4-0.4,1.1-0.7,1.5c-0.4,0.4-0.7,0.7-1.5,0.7h-15.1c0.4,1.1,0.7,1.8,1.8,3c1.5,1.5,3,1.8,4.8,1.8
						s3-0.4,4.4-1.5c0.7-0.7,1.8-0.4,2.6,0c0.4,0.4,0.7,0.7,0.7,1.5c0,0.4,0,1.1-0.4,1.5C248.3,428.9,246,429.7,243.5,429.7z
						 M237.2,417.1h12.9c-0.4-1.1-0.7-1.8-1.8-3c-1.5-1.5-3-1.8-4.8-1.8s-3.3,0.7-4.8,1.8C237.9,415.3,237.2,416,237.2,417.1z"/>
				</g>
			</g>
			<g>
				<g>
					<path class="st0" d="M265.6,429.7c-5.2,0-7.7-2.6-7.7-7.7v-9.6h-1.1c-0.4,0-1.1-0.4-1.5-0.7c-0.4-0.4-0.7-0.7-0.7-1.5
						c0-0.4,0.4-1.1,0.7-1.5c0.4-0.4,0.7-0.7,1.5-0.7h1.1v-6.6c0-0.4,0.4-1.1,0.7-1.5s0.7-0.7,1.5-0.7c0.4,0,1.1,0.4,1.5,0.7
						s0.7,0.7,0.7,1.5v6.6h2.2c0.4,0,1.1,0.4,1.5,0.7s0.7,0.7,0.7,1.5c0,0.4-0.4,1.1-0.7,1.5s-0.7,0.7-1.5,0.7h-2.2v9.6
						c0,2.6,1.1,3.7,3.7,3.7c0.4,0,1.1,0.4,1.5,0.7s0.7,0.7,0.7,1.5c0,0.7-0.7,1.1-1.1,1.5C266.7,429.7,266,429.7,265.6,429.7z"/>
				</g>
			</g>
			<g>
				<g>
					<path class="st0" d="M274.8,412.7c-0.4,0-0.7,0-1.1-0.4c-0.4-0.4-0.4-0.7-0.4-1.1c0-0.4,0-0.4,0-0.7c1.1-2.6,1.1-5.2,0-7.4
						c0-0.4-0.4-0.7-0.4-1.1c0-0.7,0.4-1.1,0.7-1.5s1.1-0.7,1.5-0.7c1.1,0,1.5,0.4,2.2,1.5c0.7,1.5,1.1,3,1.1,4.4
						c0,2.2-1.1,4.4-3,6.6C275.5,412.7,275.2,412.7,274.8,412.7z"/>
				</g>
			</g>
			<g>
				<g>
					<path class="st0" d="M288.1,429.7c-3.3,0-5.9-1.1-8.1-3.7c-0.4-0.4-0.4-0.7-0.4-1.1c0-0.4,0.4-1.1,0.7-1.5
						c0.4-0.4,0.7-0.7,1.5-0.7c0.4,0,1.1,0,1.5,0.4s0.4,0.4,0.4,0.4c1.5,1.5,3,1.8,4.8,1.8c1.8,0,3.3-0.7,4.4-1.8
						c0.4-0.4,0.4-0.4,0.4-0.7s0-0.4-0.4-0.7l-8.9-3c-1.1-0.4-1.8-0.7-2.6-1.5c-1.1-1.1-1.5-2.2-1.5-3.3c0-1.5,0.4-2.6,1.5-3.3
						c1.8-1.8,4.1-3,7-3c3.3,0,5.9,1.1,8.1,3.7c0.4,0.4,0.4,0.7,0.4,1.1c0,0.4-0.4,1.1-0.7,1.5c-0.4,0.4-0.7,0.7-1.5,0.7
						c-0.4,0-1.1,0-1.5-0.4c-0.4-0.4-0.4-0.4-0.4-0.4l0,0c-1.5-1.5-3-1.8-4.8-1.8c-1.8,0-3.3,0.7-4.4,1.8c-0.4,0.4-0.4,0.4-0.4,0.7
						s0.4,0.4,0.4,0.7l8.9,3c1.1,0.4,1.8,0.7,2.6,1.5c1.1,0.7,1.5,2.2,1.5,3.3c0,1.5-0.4,2.6-1.5,3.3
						C293.2,428.9,291,429.7,288.1,429.7z"/>
				</g>
			</g>
			<g>
				<g>
					<path class="st0" d="M321.3,438.1c-3,0-5.9-1.1-8.1-3.3c-0.7-0.7-1.5-1.8-1.8-2.6c0-0.4-0.4-0.7-0.4-1.1s0.4-1.1,0.7-1.5
						c0.7-0.7,1.8-0.7,2.6,0c0,0.4,0.4,0.4,0.4,0.7c0.4,0.7,0.7,1.1,1.1,1.8c1.5,1.5,3.3,2.2,5.2,2.2c1.8,0,3.7-0.7,5.2-2.2
						c0.7-1.1,1.1-2.2,1.1-3v-1.8c-1.8,1.5-4.1,2.2-6.6,2.2c-3,0-5.5-1.1-7.4-3c-2.2-2.2-3-4.4-3-7.4s1.1-5.5,3-7.4
						c2.2-2.2,4.4-3,7.4-3c3,0,5.5,1.1,7.4,3c2.2,2.2,3,4.4,3,7.4v10c0,2.2-0.7,4.1-2.6,5.9C327.2,437,324.6,438.1,321.3,438.1z
						 M321.3,412.3c-1.8,0-3.3,0.7-4.8,1.8c-1.5,1.1-1.8,3-1.8,4.8c0,1.8,0.7,3.3,1.8,4.8c1.5,1.5,3,1.8,4.8,1.8
						c1.8,0,3.3-0.7,4.8-1.8c1.5-1.1,1.8-3,1.8-4.8c0-1.8-0.7-3.3-1.8-4.8C324.6,413.1,323.1,412.3,321.3,412.3z"/>
				</g>
			</g>
			<g>
				<g>
					<path class="st0" d="M336.4,429.7c-0.4,0-1.1-0.4-1.5-0.7s-0.7-0.7-0.7-1.5v-17.3c0-0.4,0.4-1.1,0.7-1.5c0.7-0.7,1.8-0.7,2.6,0
						c0.4,0.4,0.7,0.7,0.7,1.5v0.7c1.8-1.5,4.1-2.2,6.6-2.2c1.5,0,3,0.4,4.1,0.7c0.4,0,0.4,0.4,0.7,0.4c0.4,0.4,0.7,0.7,0.7,1.5
						s-0.4,1.1-0.7,1.5c-0.4,0.4-0.7,0.7-1.5,0.7c-0.4,0-0.7,0-0.7-0.4c-0.7-0.4-1.5-0.4-2.6-0.4c-1.8,0-3.3,0.7-4.8,1.8
						c-1.5,1.5-1.8,3-1.8,4.8v8.5c0,0.4-0.4,1.1-0.7,1.5C337.1,429.7,336.8,429.7,336.4,429.7z"/>
				</g>
			</g>
			<g>
				<g>
					<path class="st0" d="M362.9,429.7c-3,0-5.5-1.1-7.4-3c-2.2-2.2-3-4.4-3-7.4s1.1-5.5,3-7.4c2.2-2.2,4.4-3,7.4-3s5.5,1.1,7.4,3
						c2.2,2.2,3,4.4,3,7.4c0,0.4-0.4,1.1-0.7,1.5c-0.4,0.4-0.7,0.7-1.5,0.7h-15.1c0.4,1.1,0.7,1.8,1.8,3c1.5,1.5,3,1.8,4.8,1.8
						c1.5,0,3-0.4,4.4-1.5c0.7-0.7,1.8-0.4,2.6,0c0.4,0.4,0.7,0.7,0.7,1.5c0,0.4,0,1.1-0.4,1.5C367.7,428.9,365.5,429.7,362.9,429.7
						z M356.3,417.1h12.9c-0.4-1.1-0.7-1.8-1.8-3c-1.5-1.5-3-1.8-4.8-1.8c-1.8,0-3,0.7-4.4,2.2C357.4,415.3,356.7,416,356.3,417.1z"
						/>
				</g>
			</g>
			<g>
				<g>
					<path class="st0" d="M386.5,429.7c-3,0-5.5-1.1-7.4-3c-2.2-2.2-3-4.4-3-7.4s1.1-5.5,3-7.4c2.2-2.2,4.4-3,7.4-3s5.5,1.1,7.4,3
						c1.8,1.8,3,4.4,3,7.4c0,0.4-0.4,1.1-0.7,1.5c-0.4,0.4-0.7,0.7-1.5,0.7h-15.1c0.4,1.1,0.7,1.8,1.8,3c1.5,1.5,3,1.8,4.8,1.8
						c1.8,0,3-0.4,4.4-1.5c0.7-0.7,1.8-0.4,2.6,0c0.4,0.4,0.7,0.7,0.7,1.5c0,0.4,0,1.1-0.4,1.5C391.3,428.9,389.1,429.7,386.5,429.7
						z M380.3,417.1h12.9c-0.4-1.1-0.7-1.8-1.8-3c-1.5-1.5-3-1.8-4.8-1.8c-1.8,0-3.3,0.7-4.8,1.8C381,415.3,380.6,416,380.3,417.1z"
						/>
				</g>
			</g>
			<g>
				<g>
					<path class="st0" d="M417.5,429.7c-0.4,0-1.1-0.4-1.5-0.7c-0.4-0.4-0.7-0.7-0.7-1.5v-9.2c0-1.5-0.7-3-1.8-4.1
						c-1.1-1.1-2.6-1.8-4.1-1.8c-1.5,0-3,0.7-4.1,1.8c-1.1,1.1-1.8,2.6-1.8,4.1v9.2c0,0.4-0.4,1.1-0.7,1.5c-0.7,0.7-1.8,0.7-2.6,0
						c-0.4-0.4-0.7-0.7-0.7-1.5v-17.3c0-0.4,0.4-1.1,0.7-1.5c0.7-0.7,1.8-0.7,2.6,0c0.4,0.4,0.7,0.7,0.7,1.5l0,0
						c1.8-1.5,3.7-1.8,5.9-1.8c2.6,0,5.2,1.1,7,3c1.8,1.8,3,4.4,3,7v9.2c0,0.4-0.4,1.1-0.7,1.5C418.3,429.7,417.9,429.7,417.5,429.7
						z"/>
				</g>
			</g>
			<g>
				<g>
					<path class="st0" d="M444.1,429.7c-5.2,0-7.7-2.6-7.7-7.7v-9.6h-0.7c-0.4,0-1.1-0.4-1.5-0.7c-0.4-0.4-0.7-0.7-0.7-1.5
						c0-0.4,0.4-1.1,0.7-1.5c0.4-0.4,0.7-0.7,1.5-0.7h0.7v-6.6c0-0.4,0.4-1.1,0.7-1.5c0.4-0.4,0.7-0.7,1.5-0.7
						c0.7,0,1.1,0.4,1.5,0.7c0.4,0.4,0.7,0.7,0.7,1.5v6.6h2.2c0.4,0,1.1,0.4,1.5,0.7c0.4,0.4,0.7,0.7,0.7,1.5c0,0.4-0.4,1.1-0.7,1.5
						c-0.4,0.4-0.7,0.7-1.5,0.7h-2.2v9.6c0,2.6,1.1,3.7,3.7,3.7c0.4,0,1.1,0.4,1.5,0.7c0.4,0.4,0.7,0.7,0.7,1.5
						c0,0.4-0.4,1.1-0.7,1.5C445.2,429.7,444.4,429.7,444.1,429.7z"/>
				</g>
			</g>
			<g>
				<g>
					<path class="st0" d="M466.2,429.7c-0.4,0-1.1-0.4-1.5-0.7c-0.4-0.4-0.7-0.7-0.7-1.5v-9.2c0-1.5-0.7-3-1.8-4.1
						c-1.1-1.1-2.6-1.8-4.1-1.8c-1.5,0-3,0.7-4.1,1.8c-1.1,1.1-1.8,2.6-1.8,4.1v9.2c0,0.4-0.4,1.1-0.7,1.5c-0.4,0.4-0.7,0.7-1.5,0.7
						c-0.7,0-1.1-0.4-1.5-0.7c-0.4-0.4-0.7-0.7-0.7-1.5v-25.8c0-0.4,0.4-1.1,0.7-1.5c0.4-0.4,0.7-0.7,1.5-0.7c0.4,0,1.1,0.4,1.5,0.7
						c0.4,0.4,0.7,0.7,0.7,1.5v8.5c1.8-1.5,3.7-1.8,5.9-1.8c2.6,0,5.2,1.1,7,3c1.8,1.8,3,4.4,3,7v9.2c0,0.4-0.4,1.1-0.7,1.5
						C467.3,429.7,466.9,429.7,466.2,429.7z"/>
				</g>
			</g>
			<g>
				<g>
					<path class="st0" d="M481.3,429.7c-3,0-5.5-1.1-7.4-3c-2.2-2.2-3-4.4-3-7.4s1.1-5.5,3-7.4c2.2-2.2,4.4-3,7.4-3s5.5,1.1,7.4,3
						c2.2,2.2,3,4.4,3,7.4c0,0.4-0.4,1.1-0.7,1.5c-0.4,0.4-0.7,0.7-1.5,0.7h-15.1c0.4,1.1,0.7,1.8,1.8,3c1.5,1.5,3,1.8,4.8,1.8
						c1.5,0,3-0.4,4.4-1.5c0.7-0.7,1.8-0.4,2.6,0c0.4,0.4,0.7,0.7,0.7,1.5c0,0.4-0.4,1.1-0.4,1.5
						C486.5,428.9,483.9,429.7,481.3,429.7z M475.1,417.1H488c-0.4-1.1-0.7-1.8-1.8-3c-1.5-1.5-3-1.8-4.8-1.8
						c-1.8,0-3.3,0.7-4.8,1.8C475.8,415.3,475.4,416,475.1,417.1z"/>
				</g>
			</g>
			<g>
				<g>
					<path class="st0" d="M507.9,438.1c-0.4,0-1.1-0.4-1.5-0.7c-0.4-0.4-0.7-0.7-0.7-1.5v-17.3c0-3,1.1-5.5,3-7.4
						c2.2-2.2,4.4-3,7.4-3c3,0,5.5,1.1,7.4,3c2.2,2.2,3,4.4,3,7.4s-1.1,5.5-3,7.4c-2.2,2.2-4.4,3-7.4,3c-2.6,0-4.8-0.7-6.6-2.2v8.9
						c0,0.4-0.4,1.1-0.7,1.5C509,438.1,508.6,438.1,507.9,438.1z M516.7,412.3c-1.8,0-3.3,0.7-4.8,1.8c-1.1,1.5-1.8,3-1.8,4.8
						c0,1.8,0.7,3.3,1.8,4.8c1.5,1.5,3,1.8,4.8,1.8s3.3-0.7,4.8-1.8c1.1-1.5,1.8-3,1.8-4.8c0-1.8-0.7-3.3-1.8-4.8
						C520,413.1,518.6,412.3,516.7,412.3z"/>
				</g>
			</g>
			<g>
				<g>
					<path class="st0" d="M534.4,429.7h-3c-0.4,0-1.1-0.4-1.5-0.7c-0.4-0.4-0.7-0.7-0.7-1.5v-25.8c0-0.4,0.4-1.1,0.7-1.5
						s0.7-0.7,1.5-0.7c0.4,0,1.1,0.4,1.5,0.7c0.4,0.4,0.7,0.7,0.7,1.5v24h0.7c0.4,0,1.1,0.4,1.5,0.7s0.7,0.7,0.7,1.5
						s-0.4,1.1-0.7,1.5S535.2,429.7,534.4,429.7z"/>
				</g>
			</g>
			<g>
				<g>
					<path class="st0" d="M558.4,429.7c-0.4,0-1.1-0.4-1.5-0.7c-0.4-0.4-0.7-0.7-0.7-1.5v-0.4c-1.8,1.5-4.1,2.2-6.6,2.2
						c-3,0-5.5-1.1-7.4-3c-2.2-2.2-3-4.4-3-7.4s1.1-5.5,3-7.4c2.2-2.2,4.4-3,7.4-3c3,0,5.5,1.1,7.4,3c2.2,2.2,3,4.4,3,7.4v8.5
						c0,0.4-0.4,1.1-0.7,1.5C559.1,429.7,558.8,429.7,558.4,429.7z M549.5,412.3c-1.8,0-3.3,0.7-4.8,1.8c-1.5,1.1-1.8,3-1.8,4.8
						c0,1.8,0.7,3.3,1.8,4.8c1.1,1.5,3,1.8,4.8,1.8s3.3-0.7,4.8-1.8c1.5-1.5,1.8-3,1.8-4.8c0-1.8-0.7-3.3-1.8-4.8
						C552.9,413.1,551.4,412.3,549.5,412.3z"/>
				</g>
			</g>
			<g>
				<g>
					<path class="st0" d="M580.5,429.7c-0.4,0-1.1-0.4-1.5-0.7s-0.7-0.7-0.7-1.5v-9.2c0-1.5-0.7-3-1.8-4.1c-1.1-1.1-2.6-1.8-4.1-1.8
						c-1.5,0-3,0.7-4.1,1.8c-1.1,1.1-1.8,2.6-1.8,4.1v9.2c0,0.4-0.4,1.1-0.7,1.5c-0.7,0.7-1.8,0.7-2.6,0c-0.4-0.4-0.7-0.7-0.7-1.5
						v-17.3c0-0.4,0.4-1.1,0.7-1.5c0.7-0.7,1.8-0.7,2.6,0c0.4,0.4,0.7,0.7,0.7,1.5l0,0c1.8-1.5,3.7-1.8,5.9-1.8c2.6,0,5.2,1.1,7,3
						c1.8,1.8,3,4.4,3,7v9.2c0,0.4-0.4,1.1-0.7,1.5C581.6,429.7,580.9,429.7,580.5,429.7z"/>
				</g>
			</g>
			<g>
				<g>
					<path class="st0" d="M595.6,429.7c-3,0-5.5-1.1-7.4-3c-2.2-2.2-3-4.4-3-7.4s1.1-5.5,3-7.4c2.2-2.2,4.4-3,7.4-3
						c3,0,5.5,1.1,7.4,3c2.2,2.2,3,4.4,3,7.4c0,0.4-0.4,1.1-0.7,1.5c-0.4,0.4-0.7,0.7-1.5,0.7h-15.1c0.4,1.1,0.7,1.8,1.8,3
						c1.5,1.5,3,1.8,4.8,1.8c1.5,0,3-0.4,4.4-1.5c0.7-0.7,1.8-0.4,2.6,0c0.4,0.4,0.7,0.7,0.7,1.5c0,0.4-0.4,1.1-0.7,1.5
						C600.4,428.9,598.2,429.7,595.6,429.7z M589,417.1h12.9c-0.4-1.1-0.7-1.8-1.8-3c-1.5-1.5-3-1.8-4.8-1.8s-3.3,0.7-4.8,1.8
						C590.1,415.3,589.4,416,589,417.1z"/>
				</g>
			</g>
			<g>
				<g>
					<path class="st0" d="M617.8,429.7c-5.2,0-7.7-2.6-7.7-7.7v-9.6h-0.7c-0.4,0-1.1-0.4-1.5-0.7c-0.4-0.4-0.7-0.7-0.7-1.5
						c0-0.4,0.4-1.1,0.7-1.5s0.7-0.7,1.5-0.7h0.7v-6.6c0-0.4,0.4-1.1,0.7-1.5s0.7-0.7,1.5-0.7c0.4,0,1.1,0.4,1.5,0.7
						c0.4,0.4,0.7,0.7,0.7,1.5v6.6h2.2c0.4,0,1.1,0.4,1.5,0.7c0.4,0.4,0.7,0.7,0.7,1.5c0,0.4-0.4,1.1-0.7,1.5s-0.7,0.7-1.5,0.7h-2.2
						v9.6c0,2.6,1.1,3.7,3.7,3.7c0.4,0,1.1,0.4,1.5,0.7c0.4,0.4,0.7,0.7,0.7,1.5c0,0.7-0.4,1.1-0.7,1.5
						C618.5,429.7,618.1,429.7,617.8,429.7z"/>
				</g>
			</g>
		</g>
		<g>
			<g>
				<g>
					<path class="st0" d="M413.8,271.8c0-1.5,0.4-2.6,1.5-3.7c1.1-1.1,2.2-1.5,3.7-1.5c1.5,0,2.6,0.4,3.7,1.5
						c1.1,1.1,1.5,2.2,1.5,3.7v63.4c0,10.3-3.7,18.8-10.7,26.2c-7.4,7.4-15.9,10.7-26.2,10.7c-10.3,0-18.8-3.7-26.2-10.7
						c-7.4-7.4-10.7-15.9-10.7-26.2s3.7-18.8,10.7-26.2c7.4-7.4,15.9-10.7,26.2-10.7c10.3,0,18.8,3.7,26.2,10.7c0,0,0,0,0.4,0.4
						V271.8z M413.8,335.6c0-7.4-2.6-13.6-7.7-18.8c-5.2-5.2-11.4-7.7-18.8-7.7c-7.4,0-13.6,2.6-18.8,7.7
						c-5.2,5.2-7.7,11.4-7.7,18.8c0,7.4,2.6,13.6,7.7,18.8c5.2,5.2,11.4,7.7,18.8,7.7c7.4,0,13.6-2.6,18.8-7.7
						C411.3,349.3,413.8,342.6,413.8,335.6z"/>
					<path class="st0" d="M495.3,309.4c-7.4-7.4-15.9-10.7-26.2-10.7c-10.3,0-18.8,3.7-26.2,10.7c-7.4,7.4-10.7,15.9-10.7,26.2
						c0,10.3,3.7,18.8,10.7,26.2c7.4,7.4,15.9,10.7,26.2,10.7c10.3,0,18.8-3.7,26.2-10.7c7.4-7.4,10.7-15.9,10.7-26.2
						C506.4,325.3,502.7,316.4,495.3,309.4z M488,354.1c-5.2,5.2-11.4,7.7-18.8,7.7c-7.4,0-13.6-2.6-18.8-7.7
						c-5.2-5.2-7.7-11.4-7.7-18.8c0-7.4,2.6-13.6,7.7-18.8c5.2-5.2,11.4-7.7,18.8-7.7c7.4,0,13.6,2.6,18.8,7.7
						c5.2,5.2,7.7,11.4,7.7,18.8C495.7,342.6,493.1,348.9,488,354.1z"/>
					<path class="st0" d="M524.5,367.3c0,1.5-0.4,2.6-1.5,3.7s-2.2,1.5-3.7,1.5s-2.6-0.4-3.7-1.5c-1.1-1.1-1.5-2.2-1.5-3.7v-63.4
						c0-1.5,0.4-2.6,1.5-3.7c1.1-1.1,2.2-1.5,3.7-1.5s2.6,0.4,3.7,1.5c1.1,1.1,1.5,2.2,1.5,3.7v1.5c5.2-4.4,11.4-6.6,18.4-6.6
						c8.1,0,14.8,3,20.7,8.5c1.1,1.1,2.2,2.6,3.3,3.7c1.1-1.5,2.2-2.6,3.3-3.7c5.5-5.5,12.5-8.5,20.7-8.5c8.1,0,14.8,3,20.7,8.5
						c5.5,5.5,8.5,12.5,8.5,20.7v39.5c0,1.5-0.4,2.6-1.5,3.7c-1.1,1.1-2.2,1.5-3.7,1.5s-2.6-0.4-3.7-1.5s-1.5-2.2-1.5-3.7v-39.8
						c0-5.2-1.8-9.6-5.5-12.9c-3.7-3.7-8.1-5.5-12.9-5.5c-5.2,0-9.6,1.8-12.9,5.5c-3.7,3.7-5.5,8.1-5.5,12.9V367
						c0,1.5-0.4,2.6-1.5,3.7c-1.1,1.1-2.2,1.5-3.7,1.5c-1.5,0-2.6-0.4-3.7-1.5c-1.1-1.1-1.5-2.2-1.5-3.7v-39.5
						c0-5.2-1.8-9.6-5.5-12.9c-3.7-3.7-8.1-5.5-12.9-5.5c-5.2,0-9.6,1.8-12.9,5.5c-3.7,3.7-5.5,8.1-5.5,12.9v39.8
						C525.6,367.3,524.5,367.3,524.5,367.3z"/>
				</g>
			</g>
			<g>
				<path class="st0" d="M297.7,308.7c-7.4,0-13.6,2.6-18.8,7.7c-3.7,3.7-6.3,8.5-7.4,13.3h51.6c-1.1-5.2-3.3-9.6-7.4-13.3
					C310.9,311.3,305,308.7,297.7,308.7z"/>
				<path class="st0" d="M158.3,396.1l-5.5,36.9c-0.7,4.1,2.6,7.4,6.3,7.4h47.2c4.1,0,7-3.3,6.3-7.4l-5.5-36.9
					c-0.4-3.3,2.2-6.6,5.5-6.6h72.3c0.4,0,0.7,0,1.1,0c1.1,0,2.2,0,3.3,0c35.8,0,63.4-33.6,53.5-71.2c-6.6-24.7-30.2-41.3-55.7-39.8
					h-0.4c-1.8-19.2-18.1-34.7-37.6-34.7c-8.9,0-17,3-23.6,8.1c-12.2-29.9-42-51.3-76.7-51.3c-44.6,0-80.8,35-83.3,78.9
					c-25.4,4.8-45,27.3-45,54.6c0,30.6,24.7,55.3,55.3,55.7c0,0,0,0,0.4,0h76.7C156.1,389.5,158.6,392.8,158.3,396.1z M107,371
					c-1.1,1.1-2.2,1.5-3.7,1.5c-17.7,0-26.6-8.9-26.6-26.6v-36.9h-5.2c-1.5,0-2.6-0.4-3.7-1.5c-1.1-1.1-1.5-2.2-1.5-3.7
					c0-1.5,0.4-2.6,1.5-3.7c1.1-1.1,2.2-1.5,3.7-1.5h5.2v-26.6c0-1.5,0.4-2.6,1.5-3.7c1.1-1.1,2.2-1.5,3.7-1.5s2.6,0.4,3.7,1.5
					c1.1,1.1,1.5,2.2,1.5,3.7v26.6h10.7c1.5,0,2.6,0.4,3.7,1.5c1.1,1.1,1.5,2.2,1.5,3.7c0,1.5-0.4,2.6-1.5,3.7
					c-1.1,1.1-2.2,1.5-3.7,1.5H87.1v36.9c0,10.7,5.2,15.9,15.9,15.9c1.5,0,2.6,0.4,3.7,1.5c1.1,1.1,1.5,2.2,1.5,3.7
					C108.9,368.8,108.1,369.9,107,371z M174.1,310.2c-1.1,1.1-2.2,1.5-3.7,1.5c-0.7,0-1.5,0-2.2-0.4c-3-1.5-6.6-1.8-10.3-1.8
					c-7.4,0-13.6,2.6-18.8,7.7c-5.2,5.2-7.7,11.4-7.7,18.8v31.7c0,1.5-0.4,2.6-1.5,3.7c-1.1,1.1-2.2,1.5-3.7,1.5
					c-1.5,0-2.6-0.4-3.7-1.5c-1.1-1.1-1.5-2.2-1.5-3.7v-63.8c0-1.5,0.4-2.6,1.5-3.7c1.1-1.1,2.2-1.5,3.7-1.5c1.5,0,2.6,0.4,3.7,1.5
					c1.1,1.1,1.5,2.2,1.5,3.7v5.9c7.4-7.4,16.2-11.1,26.6-11.1c5.2,0,10,0.7,14,2.6c0.7,0.4,1.5,0.7,2.2,1.5
					c1.1,1.1,1.5,2.2,1.5,3.7C175.6,307.6,174.9,309.1,174.1,310.2z M248.3,338.6c-1.1,1.1-2.2,1.5-3.7,1.5H187
					c1.1,5.2,3.3,9.6,7.4,13.3c4.1,4.1,8.9,6.6,14.4,7.4c0,0,0,0,0.4,0c0.4,0,0.4,0,0.7,0s0.4,0,0.7,0c0.4,0,0.4,0,0.7,0
					s0.4,0,0.7,0s0.7,0,1.1,0c5.9,0,11.4-1.8,16.6-5.2c2.2-1.8,4.4-3.7,6.3-5.5c0.4-0.4,0.7-1.1,1.5-1.5c1.1-0.7,2.6-1.1,4.1-0.7
					s2.6,1.1,3.3,2.2c0.7,1.1,1.1,2.6,0.7,4.1c0,1.1-0.7,1.8-1.1,2.6c-2.2,3-5.2,5.5-8.5,7.7c-7.7,5.5-16.6,8.1-25.8,7
					c-0.4,0-1.1,0-1.5,0h-0.4c-0.4,0-1.1,0-1.5-0.4h-0.4l0,0c-7.4-1.5-13.6-4.8-19.2-10.3c-7.4-7.4-10.7-15.9-10.7-26.2
					c0-10.3,3.7-18.8,10.7-26.2c7.4-7.4,15.9-10.7,26.2-10.7c10.3,0,18.8,3.7,26.2,10.7s10.7,15.9,10.7,26.2
					C249.7,336.4,249,337.5,248.3,338.6z M278.9,353.3c4.1,4.1,8.9,6.6,14.4,7.4c0,0,0,0,0.4,0s0.4,0,0.7,0s0.4,0,0.7,0s0.4,0,0.7,0
					c0.4,0,0.4,0,0.7,0s0.7,0,1.1,0c5.9,0,11.4-1.8,16.6-5.2c2.2-1.8,4.4-3.7,6.3-5.5c0.4-0.4,0.7-1.1,1.5-1.5
					c1.1-0.7,2.6-1.1,4.1-0.7c1.5,0.4,2.6,1.1,3.3,2.2c0.7,1.1,1.1,2.6,0.7,4.1c0,1.1-0.7,1.8-1.1,2.6c-2.2,3-5.2,5.5-8.5,7.7
					c-7.7,5.5-16.6,8.1-25.8,7c-0.4,0-1.1,0-1.5,0h-0.4c-0.4,0-1.1,0-1.5-0.4H291l0,0c-7.4-1.5-13.6-4.8-19.2-10.3
					c-7.4-7.4-10.7-15.9-10.7-26.2c0-10.3,3.7-18.8,10.7-26.2c7.4-7.4,15.9-10.7,26.2-10.7c10.3,0,18.8,3.7,26.2,10.7
					c7,7.4,10.7,15.9,10.7,26.2c0,1.5-0.4,2.6-1.5,3.7c-1.1,1.1-2.2,1.5-3.7,1.5h-57.9C272.6,345.2,275.2,349.6,278.9,353.3z"/>
				<path class="st0" d="M212.9,308.7c-7.4,0-13.6,2.6-18.8,7.7c-3.7,3.7-6.3,8.5-7.4,13.3h51.6c-1.1-5.2-3.3-9.6-7.4-13.3
					C226.5,311.3,220.2,308.7,212.9,308.7z"/>
			</g>
		</g>
	</g>
</g>
</svg>
